# xmcd CD database file
#
# Track frame offsets:
#	150
#	23932
#	43412
#	60050
#	80975
#	99440
#	126325
#	144762
#	163370
#
# Disc length: 2508 seconds
#
# Revision: 0
# Processed by: cddbd v1.5.1PL2 Copyright (c) Steve Scherf et al.
# Submitted via: CDex 1.51
#
DISCID=7909ca09
DTITLE=安藤秀樹 - Zoo Picnic
DYEAR=1986
DGENRE=Pop
TTITLE0=遊牧の風
TTITLE1=Foolish Game
TTITLE2=見えないフェイス
TTITLE3=Crush on Blue
TTITLE4=Girl with Hat
TTITLE5=Zoo Picnic
TTITLE6=旅人
TTITLE7=Rain Dance
TTITLE8=Human Pain(爪の痛み)
EXTD=YEAR: 1986
EXTT0=
EXTT1=
EXTT2=
EXTT3=
EXTT4=
EXTT5=
EXTT6=
EXTT7=
EXTT8=
PLAYORDER=
